<?xml version="1.0" standalone="no"?>
<!DOCTYPE svg PUBLIC "-//W3C//DTD SVG 20010904//EN"
 "http://www.w3.org/TR/2001/REC-SVG-20010904/DTD/svg10.dtd">
<svg version="1.0" xmlns="http://www.w3.org/2000/svg"
 width="128.000000pt" height="128.000000pt" viewBox="0 0 128.000000 128.000000"
 preserveAspectRatio="xMidYMid meet">
<metadata>
Created by potrace 1.14, written by Peter Selinger 2001-2017
</metadata>
<g transform="translate(0.000000,128.000000) scale(0.100000,-0.100000)"
fill="#000000" stroke="none">
<path d="M600 1240 c-18 -18 -20 -33 -20 -177 l0 -158 -148 148 c-155 155
-179 169 -215 129 -38 -42 -26 -58 191 -275 157 -157 214 -207 233 -207 18 0
74 50 232 208 218 218 231 237 189 275 -40 36 -60 23 -214 -130 l-148 -148 0
158 c0 144 -2 159 -20 177 -11 11 -29 20 -40 20 -11 0 -29 -9 -40 -20z"/>
<path d="M97 1062 c-36 -40 -23 -60 130 -214 l148 -148 -158 0 c-144 0 -159
-2 -177 -20 -25 -25 -25 -55 0 -80 18 -18 33 -20 177 -20 l158 0 -148 -148
c-155 -155 -169 -179 -129 -215 41 -37 58 -26 274 191 159 159 208 213 208
232 0 19 -49 74 -208 233 -218 218 -237 231 -275 189z"/>
<path d="M908 872 c-159 -159 -208 -213 -208 -232 0 -19 49 -74 208 -233 218
-218 237 -231 275 -189 35 39 23 59 -130 214 l-147 148 157 0 c144 0 159 2
177 20 27 27 26 65 -2 84 -18 13 -53 16 -178 16 l-155 0 148 148 c155 155 169
179 129 215 -41 37 -58 26 -274 -191z"/>
<path d="M408 373 c-219 -219 -232 -238 -190 -276 39 -35 59 -23 214 130 l148
147 0 -161 c0 -156 1 -162 22 -177 30 -21 54 -20 78 4 18 18 20 33 20 177 l0
158 148 -148 c155 -155 179 -169 215 -129 37 41 26 58 -191 274 -156 156 -214
208 -232 208 -18 0 -76 -52 -232 -207z"/>
</g>
</svg>
